<svg xmlns="http://www.w3.org/2000/svg" width="16" height="16" id="calender"><g transform="translate(871 -962.362)"><path fill="#f05542" style="marker:none" d="M-868 965.362h9c.554 0 1 .446 1 1v2.5h-11v-2.5c0-.554.446-1 1-1z" color="#000" overflow="visible"></path><path fill="#e9eded" d="M-869 968.362v7c0 .554.446 1 1 1h9c.554 0 1-.446 1-1v-7h-11z"></path><rect width="1" height="3" x="-867" y="964.362" fill="#34485c" color="#000" overflow="visible" style="marker:none" rx=".5" ry=".5"></rect><rect style="marker:none" width="1" height="3" x="-861" y="964.362" fill="#34485c" color="#000" overflow="visible" rx=".5" ry=".5"></rect><rect style="marker:none" width="1" height="1" x="-861" y="969.362" fill="#cad1d8" color="#000" overflow="visible" ry="0"></rect><rect width="1" height="1" x="-863" y="969.362" fill="#cad1d8" color="#000" overflow="visible" ry="0" style="marker:none"></rect><rect width="1" height="1" x="-865" y="969.362" fill="#cad1d8" color="#000" overflow="visible" ry="0" style="marker:none"></rect><rect style="marker:none" width="1" height="1" x="-867" y="969.362" fill="#cad1d8" color="#000" overflow="visible" ry="0"></rect><rect width="1" height="1" x="-861" y="971.362" fill="#cad1d8" color="#000" overflow="visible" ry="0" style="marker:none"></rect><rect style="marker:none" width="1" height="1" x="-863" y="971.362" fill="#cad1d8" color="#000" overflow="visible" ry="0"></rect><rect style="marker:none" width="1" height="1" x="-865" y="971.362" fill="#cad1d8" color="#000" overflow="visible" ry="0"></rect><rect width="1" height="1" x="-867" y="971.362" fill="#cad1d8" color="#000" overflow="visible" ry="0" style="marker:none"></rect><rect width="1" height="1" x="-863" y="973.362" fill="#cad1d8" color="#000" overflow="visible" ry="0" style="marker:none"></rect><rect width="1" height="1" x="-865" y="973.362" fill="#cad1d8" color="#000" overflow="visible" ry="0" style="marker:none"></rect><rect style="marker:none" width="1" height="1" x="-867" y="973.362" fill="#cad1d8" color="#000" overflow="visible" ry="0"></rect></g></svg>